<?xml version="1.0" encoding="UTF-8"?>
<!DOCTYPE svg PUBLIC "-//W3C//DTD SVG 1.1//EN" "http://www.w3.org/Graphics/SVG/1.1/DTD/svg11.dtd">
<!-- Creator: CorelDRAW 2021 (64 Bit) -->
<svg xmlns="http://www.w3.org/2000/svg" xml:space="preserve" width="255mm" height="55mm" version="1.1"
    style="shape-rendering:geometricPrecision; text-rendering:geometricPrecision; image-rendering:optimizeQuality; fill-rule:evenodd; clip-rule:evenodd"
    viewBox="0 0 25500 5500" xmlns:xlink="http://www.w3.org/1999/xlink"
    xmlns:xodm="http://www.corel.com/coreldraw/odm/2003">
    <defs>
        <style type="text/css">
            <![CDATA[
            .fil2 {
                fill: #FED651
            }

            .fil1 {
                fill: #373435;
                fill-rule: nonzero
            }

            .fil0 {
                fill: #ffffff;
                fill-rule: nonzero
            }
            ]]>
        </style>
    </defs>
    <g id="Camada_x0020_1">
        <metadata id="CorelCorpID_0Corel-Layer" />
        <g id="_2587825396656">
            <g>
                <path class="fil0"
                    d="M1693.55 3691.04l0 486.28 694.77 0c-87.93,215.83 -339.73,358.39 -634.16,358.39 -423.66,0 -701.44,-303.1 -701.44,-746.08 0,-446.98 282.45,-750.07 701.44,-750.07 285.1,0 535.57,151.88 636.83,387.69l808.02 0c-118.58,-650.14 -718.76,-1109.11 -1451.51,-1109.11 -861.97,0 -1483.48,620.84 -1483.48,1471.49 0,851.32 632.83,1467.5 1490.14,1467.5 875.97,0 1473.49,-650.16 1473.49,-1566.09l-1534.1 0zm2971.63 1566.09c701.44,0 1209.7,-482.95 1209.7,-1149.75 0,-669.47 -508.26,-1149.76 -1209.7,-1149.76 -704.11,0 -1209.7,480.29 -1209.7,1149.76 0,666.8 505.59,1149.75 1209.7,1149.75zm0 -667.47c-271.12,0 -465.64,-196.51 -465.64,-482.28 0,-285.77 194.52,-482.28 465.64,-482.28 271.11,0 465.62,198.5 465.62,482.28 0,285.77 -194.51,482.28 -465.62,482.28l0 0zm2386.09 667.47c573.54,0 953.91,-295.1 953.91,-746.08 0,-547.56 -452.97,-618.16 -794.03,-678.79 -205.18,-36.64 -369.71,-65.28 -369.71,-187.85 0,-100.58 79.94,-159.2 199.17,-159.2 134.56,0 227.15,63.95 227.15,201.84l696.12 0c-8.67,-436.98 -364.38,-729.43 -913.94,-729.43 -553.56,0 -921.93,279.12 -921.93,711.44 0,523.58 443.65,624.83 778.04,679.46 207.84,33.97 371.04,69.27 371.04,193.85 0,111.9 -103.25,167.19 -211.83,167.19 -141.22,0 -251.13,-72.61 -251.13,-230.48l-715.43 0c6.66,467.62 364.37,778.05 952.57,778.05l0 0zm2452.71 -722.1c-156.54,0 -249.8,-93.26 -249.8,-247.8l0 -687.45 522.91 0 0 -571.54 -542.9 0 0 -630.84 -151.87 0 -966.56 1028.52 0 173.86 395.01 0 0 815.36c0,479.61 290.43,771.38 767.39,771.38l510.93 0 0 -651.49 -285.11 0zm1695.99 722.1c701.43,0 1209.7,-482.95 1209.7,-1149.75 0,-669.47 -508.27,-1149.76 -1209.7,-1149.76 -704.11,0 -1209.71,480.29 -1209.71,1149.76 0,666.8 505.6,1149.75 1209.71,1149.75zm0 -667.47c-271.12,0 -465.64,-196.51 -465.64,-482.28 0,-285.77 194.52,-482.28 465.64,-482.28 271.1,0 465.62,198.5 465.62,482.28 0,285.77 -194.52,482.28 -465.62,482.28l0 0zm2386.09 667.47c573.54,0 953.91,-295.1 953.91,-746.08 0,-547.56 -452.98,-618.16 -794.03,-678.79 -205.18,-36.64 -369.71,-65.28 -369.71,-187.85 0,-100.58 79.94,-159.2 199.17,-159.2 134.56,0 227.15,63.95 227.15,201.84l696.12 0c-8.67,-436.98 -364.38,-729.43 -913.94,-729.43 -553.56,0 -921.93,279.12 -921.93,711.44 0,523.58 443.65,624.83 778.04,679.46 207.84,33.97 371.04,69.27 371.04,193.85 0,111.9 -103.25,167.19 -211.83,167.19 -141.22,0 -251.14,-72.61 -251.14,-230.48l-715.42 0c6.66,467.62 364.37,778.05 952.57,778.05l0 0zm2386.1 0c701.44,0 1209.7,-482.95 1209.7,-1149.75 0,-669.47 -508.26,-1149.76 -1209.7,-1149.76 -704.11,0 -1209.7,480.29 -1209.7,1149.76 0,666.8 505.59,1149.75 1209.7,1149.75zm0 -667.47c-271.12,0 -465.63,-196.51 -465.63,-482.28 0,-285.77 194.51,-482.28 465.63,-482.28 271.11,0 465.62,198.5 465.62,482.28 0,285.77 -194.51,482.28 -465.62,482.28l0 0zm3590.46 -2200.25l-1131.1 0 0 2796.44 1131.1 0c841.99,0 1441.52,-584.86 1441.52,-1400.22 0,-816.68 -596.86,-1396.22 -1441.52,-1396.22l0 0zm-36.63 2090.33l-320.41 0 0 -1384.22 320.41 0c413,0 688.11,275.12 688.11,690.11 0,411.67 -275.11,694.11 -688.11,694.11l0 0z" />
                <polygon class="fil1"
                    points="23197.06,3563.81 22562.89,3563.81 22562.89,2899.68 21892.76,2899.68 21892.76,3563.81 21258.6,3563.81 21258.6,4191.31 21892.76,4191.31 21892.76,4870.77 22562.89,4870.77 22562.89,4191.31 23197.06,4191.31 " />
            </g>
            <path class="fil2"
                d="M24516.44 296.99l678.99 678.99 -2103.81 1583.97 -145.28 -145.27 1570.1 -2117.69zm-488 289.65l-701.31 -329.51 -626.37 2030.63 150.05 70.5 1177.63 -1771.62zm876.97 876.98l329.52 701.31 -2030.63 626.37 -70.51 -150.05 1771.62 -1177.63z" />
        </g>
    </g>
</svg>